<?xml version="1.0" encoding="iso-8859-1"?>
<!-- Generator: Adobe Illustrator 19.0.0, SVG Export Plug-In . SVG Version: 6.00 Build 0)  -->
<svg version="1.1" id="Capa_1" xmlns="http://www.w3.org/2000/svg" xmlns:xlink="http://www.w3.org/1999/xlink" x="0px" y="0px"
	 viewBox="0 0 512 512" style="enable-background:new 0 0 512 512;" xml:space="preserve">
<g>
	<g>
		<path d="M181,361v121c0,16.567,13.431,30,30,30c16.569,0,30-13.433,30-30c0-33.342,0-42.64,0-76c0-8.291,6.709-15,15-15
			s15,6.709,15,15c0,33.373,0,42.64,0,76c0,16.567,13.431,30,30,30c16.569,0,30-13.433,30-30V361H181z"/>
	</g>
</g>
<g>
	<g>
		<path d="M271,0c-24.853,0-45,21.147-45,46c0,24.853,20.147,45,45,45c24.853,0,45-20.147,45-45C316,21.147,295.853,0,271,0z"/>
	</g>
</g>
<g>
	<g>
		<path d="M466,271c-87.816,0-100.27,0-135,0v-77.578L472.211,52.211c11.719-11.719,11.719-30.703,0-42.422s-30.703-11.719-42.422,0
			L318.578,121H211.004c-9.443,0-18.334,4.446-24,11.999l-59.998,89.998c-9.946,13.257-7.266,32.065,5.991,41.997
			c5.405,4.058,11.719,6.006,17.974,6.006c-94.815,0-44.986,0-104.971,0c-8.291,0-15,6.709-15,15c0,8.291,6.709,15,15,15h15
			c0,68,0,18.306,0,196c0,8.291,6.709,15,15,15s15-6.709,15-15V331h330v166c0,8.291,6.709,15,15,15c8.291,0,15-6.709,15-15
			c0-177.694,0-128,0-196h15c8.291,0,15-6.709,15-15C481,277.709,474.291,271,466,271z"/>
	</g>
</g>
<g>
</g>
<g>
</g>
<g>
</g>
<g>
</g>
<g>
</g>
<g>
</g>
<g>
</g>
<g>
</g>
<g>
</g>
<g>
</g>
<g>
</g>
<g>
</g>
<g>
</g>
<g>
</g>
<g>
</g>
</svg>
